<?xml version="1.0" encoding="UTF-8"?>
<svg id="Layer_1" xmlns="http://www.w3.org/2000/svg" version="1.1" viewBox="0 0 198.44 221.05">
  <defs>
    <style>
      .st0 {
        fill: #231f20;
      }
    </style>
  </defs>
  <path class="st0" d="M148.14,37.76c-.05-4.8-1.98-9.92-6.53-14.47-4.24-4.24-9.26-6.52-14.52-6.58-4.89-.03-9.5,1.82-12.98,5.3l-13.78,13.78v-16.96c0-1.17-.7-2.22-1.78-2.66-1.08-.45-2.32-.2-3.14.62l-36.11,36.11c-3.07,3.07-5.05,7.41-5.23,12.13-.04.2-.07.41-.07.62v59.88c0,5.34,2.34,10.62,6.58,14.86,4.61,4.61,9.81,6.53,14.67,6.53s9.61-2.03,12.83-5.25l13.77-13.77v16.66c0,1.16.7,2.21,1.77,2.66.36.15.74.22,1.11.22.74,0,1.48-.29,2.03-.83l40.56-40.09c.55-.54.86-1.28.86-2.05V38.27c0-.18-.02-.35-.05-.51ZM118.18,26.09c2.37-2.37,5.53-3.63,8.83-3.61,3.72.04,7.36,1.74,10.52,4.89,6.77,6.77,5.77,14.86,1.29,19.35l-13.78,13.78v-16.97c0-1.17-.71-2.22-1.78-2.67-1.08-.45-2.32-.2-3.14.62l-36.11,36.12c-.34.34-.71.65-1.08.95v-17.19l35.27-35.27ZM63.37,56.97l31.19-31.19v15.77l-16.57,16.57c-.54.54-.85,1.27-.85,2.04v20.87c-3.94.59-8.45-.67-12.49-4.71-6.77-6.77-5.77-14.86-1.28-19.34ZM84,137.58c-4.49,4.49-12.57,5.49-19.34-1.28-3.15-3.15-4.89-6.98-4.89-10.78v-45.97c.26.28.53.57.81.85,4.61,4.61,9.82,6.53,14.67,6.53s9.61-2.03,12.83-5.25l31.19-31.19v15.77l-16.57,16.57c-.54.54-.85,1.27-.85,2.04v34.87l-17.85,17.85ZM142.41,103.26l-34.79,34.39v-51.58l34.79-34.79v51.99Z"/>
  <g>
    <path d="M28.64,181.34v-4.13h2.2l.2,2.79c1.07.54,2.26.93,4.26.93,2.13,0,3.46-.79,3.46-2.73,0-1.26-.87-1.93-2.2-2.53l-4.06-1.79c-2.4-1.07-3.8-2.4-3.8-4.86,0-3.46,2.66-4.46,6.13-4.46,2.33,0,4.46.53,6.12,1.53v3.66h-2.19l-.2-2.46c-.86-.4-2.06-.73-3.72-.73-2,0-3.26.6-3.26,2.4,0,1.46.86,2.13,2.53,2.86l3.66,1.6c2.46,1.06,3.86,2.33,3.86,4.66,0,3.26-2.8,4.86-6.32,4.86-2.93,0-5.39-.86-6.65-1.59h0Z"/>
    <polygon points="75.56 180.54 75.76 177.74 77.96 177.74 77.96 182.53 64.11 182.53 64.11 180.74 65.91 180.54 65.91 166.96 64.11 166.76 64.11 164.97 77.82 164.97 77.82 169.76 75.63 169.76 75.43 166.96 68.57 166.96 68.57 172.48 74.03 172.48 74.03 174.62 68.57 174.62 68.57 180.54 75.56 180.54"/>
    <polygon points="97.86 166.96 97.86 182.53 95.26 182.53 86.34 168.42 86.34 180.54 88.4 180.74 88.4 182.53 81.95 182.53 81.95 180.74 83.75 180.54 83.75 166.96 81.95 166.76 81.95 164.97 86.74 164.97 95.26 178.54 95.26 166.96 93.13 166.76 93.13 164.97 99.65 164.97 99.65 166.76 97.86 166.96"/>
    <path d="M102.25,173.75c0-6.86,3.86-9.19,8.59-9.19,2.93,0,4.99.67,5.99,1.34v3.86h-2.2l-.27-2.59c-.67-.27-1.93-.6-3.53-.6-3.66,0-5.72,1.86-5.72,7.19s2.66,7.18,5.92,7.18c1.59,0,2.79-.26,3.59-.6v-4.82h-3.79v-2h6.45v7.82c-1.73,1.2-3.79,1.59-6.39,1.59-4,0-8.65-2.33-8.65-9.18h0Z"/>
    <path d="M129.07,164.97h-8.05v1.79l1.8.2v13.58l-1.8.2v1.8h8.05c5.52,0,7.86-3.59,7.86-8.78s-2.2-8.79-7.86-8.79ZM129.01,180.54h-3.53v-13.58h3.53c3.59,0,5.05,2.06,5.05,6.79s-1.46,6.79-5.05,6.79Z"/>
    <path d="M165.61,164.56c-4.72,0-7.92,2.33-7.92,9.19s3.26,9.18,7.92,9.18,7.92-2.33,7.92-9.18-3.2-9.19-7.92-9.19ZM165.61,180.94c-3.86,0-5.06-2.46-5.06-7.18s1.2-7.19,5.06-7.19,5.06,2.46,5.06,7.19-1.2,7.18-5.06,7.18Z"/>
    <path d="M59.99,180.54l-5.92-15.58h-3.12l-5.93,15.58-1.8.2v1.8h6.06v-1.8l-1.53-.2,1.13-3.06h7.25l1.13,3.06-1.53.2v1.8h6.06v-1.8l-1.8-.2ZM49.56,175.62l2.91-7.86h.06l2.9,7.86h-5.87Z"/>
    <path d="M154.7,180.54l-5.93-15.58h-3.13l-5.92,15.58-1.8.2v1.8h6.06v-1.8l-1.53-.2,1.13-3.06h7.25l1.14,3.06-1.53.2v1.8h6.06v-1.8l-1.79-.2ZM144.27,175.62l2.91-7.86h.07l2.9,7.86h-5.88Z"/>
  </g>
  <g>
    <polygon points="67.04 191.29 64.47 191.29 64.47 205.95 69.33 205.95 69.33 204.07 67.04 203.86 67.04 191.29"/>
    <path d="M92.35,196.92h-2.71l3.33,7.01c.83,1.8,2.02,2.22,3.62,2.22,1.69,0,3.12-1.11,3.12-2.92v-11.95h-4.86v1.88l2.29.21v9.86c0,.49-.21.83-.76.83s-.77-.28-1.11-.97l-2.92-6.18Z"/>
    <path d="M117.43,203.86v-7.08c0-4.16-2.78-5.77-6.39-5.77-4.17,0-7.15,2.36-7.15,7.43s2.57,7.78,5.9,7.78c.77,0,1.32-.21,1.67-.35v-1.94c-.49.21-.9.28-1.39.28-2.15,0-3.54-1.74-3.54-5.77s1.67-5.42,4.31-5.42,4.03.9,4.03,3.75v7.08l-1.32.21v1.87h5.49v-1.87l-1.6-.21Z"/>
    <path d="M130.33,203.86v-8.06c0-2.64-1.32-4.79-4.93-4.79-2.57,0-4.73.91-4.73.91v3.89h2.02l.21-2.43s.97-.35,2.29-.35c1.74,0,2.5.69,2.5,2.85v7.98l-2.08.21v1.87h6.25v-1.87l-1.53-.21Z"/>
    <path d="M135.42,205.53c.83.42,1.67.7,3.55.7,3.54,0,6.88-1.74,6.88-7.64s-3.06-7.57-6.25-7.57c-2.78,0-4.93.91-4.93.91v3.89h2.01l.21-2.29s1.04-.48,2.71-.48c2.43,0,3.61,1.25,3.61,5.56s-1.46,5.63-4.24,5.63c-1.6,0-2.71-.42-3.55-.83v2.15Z"/>
    <polygon points="58.91 191.29 56.34 191.29 56.34 205.95 61.2 205.95 61.2 204.07 58.91 203.86 58.91 191.29"/>
    <path d="M87.25,190.66v2.29h-2.85c.69.63.97,1.73.97,2.92v10.07h-2.57v-6.39h-4.65c-1.81,0-2.57.63-2.57,2.22s1.04,2.43,2.43,2.43c.9,0,1.53-.07,2.29-.42v1.95c-.49.28-1.46.49-2.43.49-2.78,0-4.86-1.46-4.86-4.45s2.02-4.17,5.14-4.17h4.65v-1.59c0-2.15-.83-2.99-2.91-2.99-1.81,0-2.78.28-3.68.62l-.21,2.15h-2.01v-3.54c1.11-.56,3.2-1.25,5.91-1.25,1.25,0,2.5.28,2.99.56l4.38-.9Z"/>
  </g>
</svg>
